<svg width="960" height="520" viewBox="0 0 960 520" xmlns="http://www.w3.org/2000/svg">
  <rect width="960" height="520" fill="#ffffff"/>
  <text x="40" y="40" font-family="Arial, sans-serif" font-size="24" font-weight="700" fill="#1e293b">Draft Chart: Estimated Total Trip Cost by Destination</text>
  <line x1="90" y1="450" x2="900" y2="450" stroke="#334155" stroke-width="2"/>
  <line x1="90" y1="80" x2="90" y2="450" stroke="#334155" stroke-width="2"/>
  <text x="20" y="90" font-family="Arial, sans-serif" font-size="12" fill="#475569">$800</text>
  <text x="20" y="160" font-family="Arial, sans-serif" font-size="12" fill="#475569">$600</text>
  <text x="20" y="230" font-family="Arial, sans-serif" font-size="12" fill="#475569">$400</text>
  <text x="20" y="300" font-family="Arial, sans-serif" font-size="12" fill="#475569">$200</text>
  <text x="20" y="450" font-family="Arial, sans-serif" font-size="12" fill="#475569">$0</text>

  <rect x="130" y="210" width="60" height="240" fill="#1d4ed8"/>
  <rect x="220" y="160" width="60" height="290" fill="#1d4ed8"/>
  <rect x="310" y="175" width="60" height="275" fill="#1d4ed8"/>
  <rect x="400" y="240" width="60" height="210" fill="#1d4ed8"/>
  <rect x="490" y="225" width="60" height="225" fill="#1d4ed8"/>
  <rect x="580" y="190" width="60" height="260" fill="#1d4ed8"/>
  <rect x="670" y="120" width="60" height="330" fill="#1d4ed8"/>
  <rect x="760" y="320" width="60" height="130" fill="#1d4ed8"/>

  <text x="130" y="470" font-family="Arial, sans-serif" font-size="10" fill="#334155">AC</text>
  <text x="220" y="470" font-family="Arial, sans-serif" font-size="10" fill="#334155">Cape</text>
  <text x="310" y="470" font-family="Arial, sans-serif" font-size="10" fill="#334155">Wild</text>
  <text x="400" y="470" font-family="Arial, sans-serif" font-size="10" fill="#334155">Sea</text>
  <text x="490" y="470" font-family="Arial, sans-serif" font-size="10" fill="#334155">Asb</text>
  <text x="580" y="470" font-family="Arial, sans-serif" font-size="10" fill="#334155">LBI</text>
  <text x="670" y="470" font-family="Arial, sans-serif" font-size="10" fill="#334155">OCNJ</text>
  <text x="760" y="470" font-family="Arial, sans-serif" font-size="10" fill="#334155">Sandy</text>

  <text x="430" y="505" font-family="Arial, sans-serif" font-size="12" fill="#334155">Destination</text>
  <text transform="rotate(-90 18 280)" x="18" y="280" font-family="Arial, sans-serif" font-size="12" fill="#334155">Estimated Total Cost (USD)</text>
</svg>